<mxfile host="app.diagrams.net" modified="2023-05-07T21:09:14.306Z" agent="Mozilla/5.0 (Windows NT 10.0; Win64; x64) AppleWebKit/537.36 (KHTML, like Gecko) Chrome/113.0.0.0 Safari/537.36" etag="JI87HHgsZg3HP_Y6Niqu" version="21.2.9" type="github">
  <diagram name="Page-1" id="UrAOD6k8fKv2funcCNdR">
    <mxGraphModel dx="2049" dy="1080" grid="1" gridSize="10" guides="1" tooltips="1" connect="1" arrows="1" fold="1" page="0" pageScale="1" pageWidth="850" pageHeight="1100" math="0" shadow="0">
      <root>
        <mxCell id="0" />
        <mxCell id="1" parent="0" />
        <mxCell id="CTcJU4yGuNOKdw21YTPw-2" value="&lt;div&gt;internet-host&lt;br&gt;&lt;/div&gt;&lt;div&gt;10.50.&lt;/div&gt;&lt;div&gt;eth0: 10.10.0.60/27&lt;/div&gt;&lt;div&gt;21,22,23,80&lt;/div&gt;&lt;div&gt;&lt;br&gt;&lt;/div&gt;&lt;div&gt;wget-wireshark-telnet-ssh-nmap-tcpdump&lt;/div&gt;&lt;div&gt;&lt;br&gt;&lt;/div&gt;&lt;div&gt;student : password&lt;br&gt;&lt;/div&gt;" style="rounded=0;whiteSpace=wrap;html=1;movable=1;resizable=1;rotatable=1;deletable=1;editable=1;locked=0;connectable=1;" parent="1" vertex="1">
          <mxGeometry x="320" y="80" width="160" height="160" as="geometry" />
        </mxCell>
        <mxCell id="CTcJU4yGuNOKdw21YTPw-6" value="&lt;div&gt;netowrking-ctfd-1.server.vta&lt;/div&gt;&lt;div&gt;53&lt;/div&gt;&lt;div&gt;Interrogate DNS record&lt;/div&gt;&lt;div&gt;&lt;br&gt;&lt;/div&gt;&lt;div&gt;&lt;br&gt;&lt;/div&gt;" style="rounded=0;whiteSpace=wrap;html=1;" parent="1" vertex="1">
          <mxGeometry x="70" y="160" width="160" height="160" as="geometry" />
        </mxCell>
        <mxCell id="CTcJU4yGuNOKdw21YTPw-7" value="&lt;div&gt;RED-SCR&lt;br&gt;&lt;/div&gt;&lt;div&gt;172.16.120.1&lt;/div&gt;&lt;div&gt;eth0: 172.16.120.1/30&lt;/div&gt;&lt;div&gt;eth1: 172.16.120.6/30&lt;/div&gt;&lt;div&gt;eth2: 172.16.101.30/27 (DMZ)&lt;br&gt;&lt;/div&gt;&lt;div&gt;22 &lt;br&gt;&lt;/div&gt;&lt;div&gt;filtered: 179&lt;br&gt;&lt;/div&gt;&lt;div&gt;wget-tcpdump-telnet-curl&lt;br&gt;&lt;/div&gt;&lt;div&gt;vyos : password&lt;br&gt;&lt;/div&gt;" style="rounded=0;whiteSpace=wrap;html=1;" parent="1" vertex="1">
          <mxGeometry x="320" y="260" width="170" height="140" as="geometry" />
        </mxCell>
        <mxCell id="CTcJU4yGuNOKdw21YTPw-8" value="&lt;div&gt;T2&lt;/div&gt;&lt;div&gt;172.16.182.110&lt;/div&gt;&lt;div&gt;22,80&lt;/div&gt;&lt;div&gt;&lt;br&gt;&lt;/div&gt;" style="rounded=0;whiteSpace=wrap;html=1;" parent="1" vertex="1">
          <mxGeometry x="1662" y="20" width="160" height="160" as="geometry" />
        </mxCell>
        <mxCell id="CTcJU4yGuNOKdw21YTPw-9" value="&lt;div&gt;T3&lt;/div&gt;&lt;div&gt;172.16.140.33&lt;/div&gt;&lt;div&gt;22,80&lt;br&gt;&lt;/div&gt;" style="rounded=0;whiteSpace=wrap;html=1;" parent="1" vertex="1">
          <mxGeometry x="1070" y="1105" width="170" height="160" as="geometry" />
        </mxCell>
        <mxCell id="CTcJU4yGuNOKdw21YTPw-10" value="&lt;div&gt;T4&lt;br&gt;&lt;/div&gt;&lt;div&gt;red-host-1-student-5&lt;br&gt;&lt;/div&gt;&lt;div&gt;172.16.182.106&lt;/div&gt;&lt;div&gt;eth0: 172.16.182.106/27&lt;br&gt;&lt;/div&gt;&lt;div&gt;22&lt;/div&gt;&lt;div&gt;filtered: 68&lt;/div&gt;&lt;div&gt;wget-curl-telnet-ssh-wireshark&lt;/div&gt;&lt;div&gt;&lt;br&gt;&lt;/div&gt;&lt;div&gt;student:password&lt;br&gt;&lt;/div&gt;" style="rounded=0;whiteSpace=wrap;html=1;" parent="1" vertex="1">
          <mxGeometry x="1662" y="214" width="178" height="160" as="geometry" />
        </mxCell>
        <mxCell id="CTcJU4yGuNOKdw21YTPw-11" value="&lt;div&gt;T5&lt;/div&gt;&lt;div&gt;red-host-3-student-5&lt;br&gt;&lt;/div&gt;&lt;div&gt;172.16.182.114&lt;/div&gt;&lt;div&gt;eth0: 172.16.182.114/27&lt;br&gt;&lt;/div&gt;&lt;div&gt;22&lt;/div&gt;&lt;div&gt;filtered: 68&lt;/div&gt;&lt;div&gt;wget-curl-telnet-wireshark-ssh&lt;br&gt;&lt;/div&gt;&lt;div&gt;&lt;br&gt;&lt;/div&gt;&lt;div&gt;student:password&lt;br&gt;&lt;/div&gt;" style="rounded=0;whiteSpace=wrap;html=1;" parent="1" vertex="1">
          <mxGeometry x="1662" y="400" width="178" height="160" as="geometry" />
        </mxCell>
        <mxCell id="CTcJU4yGuNOKdw21YTPw-12" value="&lt;div&gt;T6&lt;/div&gt;&lt;div&gt;red-host-4-student-5&lt;br&gt;&lt;/div&gt;&lt;div&gt;172.16.182.118&lt;/div&gt;&lt;div&gt;eth0: 172.16.182.118/27&lt;br&gt;&lt;/div&gt;&lt;div&gt;22&lt;/div&gt;&lt;div&gt;filtered:68&lt;br&gt;&lt;/div&gt;&lt;div&gt;wget-curl-telnet-wrieshark-ssh&lt;br&gt;&lt;/div&gt;&lt;div&gt;&lt;br&gt;&lt;/div&gt;&lt;div&gt;student:password&lt;br&gt;&lt;/div&gt;" style="rounded=0;whiteSpace=wrap;html=1;" parent="1" vertex="1">
          <mxGeometry x="1662" y="590" width="178" height="160" as="geometry" />
        </mxCell>
        <mxCell id="CTcJU4yGuNOKdw21YTPw-13" value="&lt;div&gt;red-int-dmz2-host-2-student-5&lt;br&gt;&lt;/div&gt;&lt;div&gt;172.16.140.35&lt;/div&gt;&lt;div&gt;eth0: 172.16.140.35/27&lt;br&gt;&lt;/div&gt;&lt;div&gt;22&lt;/div&gt;&lt;div&gt;filtered: 68&lt;/div&gt;&lt;div&gt;wget-curl-wireshark-telnet-ssh&lt;/div&gt;&lt;div&gt;&lt;br&gt;&lt;/div&gt;&lt;div&gt;student:password&lt;br&gt;&lt;/div&gt;" style="rounded=0;whiteSpace=wrap;html=1;" parent="1" vertex="1">
          <mxGeometry x="1320" y="1105" width="180" height="160" as="geometry" />
        </mxCell>
        <mxCell id="CTcJU4yGuNOKdw21YTPw-14" value="&lt;div&gt;red-dmz-host-1-student-5&lt;/div&gt;&lt;div&gt;172.16.101.30&lt;/div&gt;&lt;div&gt;eth0:172.16.101.2/27&lt;br&gt;&lt;/div&gt;&lt;div&gt;22&lt;/div&gt;&lt;div&gt;filtered: 68&lt;br&gt;&lt;/div&gt;&lt;div&gt;wget-curl-telnet-wireshark&lt;/div&gt;&lt;div&gt;&lt;br&gt;&lt;/div&gt;&lt;div&gt;student : password&lt;br&gt;&lt;/div&gt;" style="rounded=0;whiteSpace=wrap;html=1;" parent="1" vertex="1">
          <mxGeometry x="325" y="720" width="160" height="160" as="geometry" />
        </mxCell>
        <mxCell id="CTcJU4yGuNOKdw21YTPw-15" value="RED-IPS&lt;div&gt;172.16.120.5&lt;/div&gt;&lt;div&gt;eth0: 172.16.120.5/30&lt;/div&gt;&lt;div&gt;eth1: 172.16.120.10/30&lt;br&gt;&lt;/div&gt;&lt;div&gt;22&lt;/div&gt;&lt;div&gt;wget-curl-telnet-tcpdump&lt;/div&gt;&lt;div&gt;&lt;br&gt;&lt;/div&gt;&lt;div&gt;vyos:password&lt;br&gt;&lt;/div&gt;" style="rounded=0;whiteSpace=wrap;html=1;" parent="1" vertex="1">
          <mxGeometry x="776" y="254" width="160" height="160" as="geometry" />
        </mxCell>
        <mxCell id="CTcJU4yGuNOKdw21YTPw-16" value="" style="endArrow=none;html=1;rounded=0;exitX=1;exitY=0.5;exitDx=0;exitDy=0;entryX=-0.014;entryY=0.468;entryDx=0;entryDy=0;entryPerimeter=0;" parent="1" source="CTcJU4yGuNOKdw21YTPw-7" target="CTcJU4yGuNOKdw21YTPw-15" edge="1">
          <mxGeometry width="50" height="50" relative="1" as="geometry">
            <mxPoint x="550" y="360" as="sourcePoint" />
            <mxPoint x="590" y="310" as="targetPoint" />
          </mxGeometry>
        </mxCell>
        <mxCell id="CTcJU4yGuNOKdw21YTPw-17" value="eth1: 172.16.120.6" style="text;html=1;align=center;verticalAlign=middle;resizable=0;points=[];autosize=1;strokeColor=none;fillColor=none;" parent="1" vertex="1">
          <mxGeometry x="490" y="298" width="120" height="30" as="geometry" />
        </mxCell>
        <mxCell id="CTcJU4yGuNOKdw21YTPw-18" value="eth0: 172.16.120.5" style="text;html=1;align=center;verticalAlign=middle;resizable=0;points=[];autosize=1;strokeColor=none;fillColor=none;" parent="1" vertex="1">
          <mxGeometry x="655" y="328" width="120" height="30" as="geometry" />
        </mxCell>
        <mxCell id="CTcJU4yGuNOKdw21YTPw-19" value="" style="endArrow=none;html=1;rounded=0;entryX=0.5;entryY=0;entryDx=0;entryDy=0;exitX=0.5;exitY=1;exitDx=0;exitDy=0;" parent="1" source="CTcJU4yGuNOKdw21YTPw-7" target="CTcJU4yGuNOKdw21YTPw-14" edge="1">
          <mxGeometry width="50" height="50" relative="1" as="geometry">
            <mxPoint x="530" y="460" as="sourcePoint" />
            <mxPoint x="580" y="410" as="targetPoint" />
          </mxGeometry>
        </mxCell>
        <mxCell id="CTcJU4yGuNOKdw21YTPw-20" value="eth2: 172.16.101.30" style="text;html=1;align=center;verticalAlign=middle;resizable=0;points=[];autosize=1;strokeColor=none;fillColor=none;rotation=90;" parent="1" vertex="1">
          <mxGeometry x="350" y="440" width="130" height="30" as="geometry" />
        </mxCell>
        <mxCell id="CTcJU4yGuNOKdw21YTPw-21" value="eth2: 172.16.101.30" style="text;html=1;align=center;verticalAlign=middle;resizable=0;points=[];autosize=1;strokeColor=none;fillColor=none;rotation=90;" parent="1" vertex="1">
          <mxGeometry x="350" y="646" width="130" height="30" as="geometry" />
        </mxCell>
        <mxCell id="CTcJU4yGuNOKdw21YTPw-22" value="&lt;div&gt;RED-POP&lt;br&gt;&lt;/div&gt;&lt;div&gt;172.16.120.9&lt;/div&gt;&lt;div&gt;eth0: 172.16.120.9/30&lt;/div&gt;&lt;div&gt;eth1: 172.16.182.126/27(Hosts)&lt;/div&gt;&lt;div&gt;eth2: 172.16.140.6/30&lt;br&gt;&lt;/div&gt;&lt;div&gt;22&lt;/div&gt;&lt;div&gt;wget-tcpdump-telnet-ssh-curl&lt;/div&gt;&lt;div&gt;&lt;br&gt;&lt;/div&gt;&lt;div&gt;vyos:password&lt;br&gt;&lt;/div&gt;" style="rounded=0;whiteSpace=wrap;html=1;" parent="1" vertex="1">
          <mxGeometry x="1200" y="254" width="180" height="160" as="geometry" />
        </mxCell>
        <mxCell id="CTcJU4yGuNOKdw21YTPw-23" value="" style="endArrow=none;html=1;rounded=0;exitX=1;exitY=0.5;exitDx=0;exitDy=0;entryX=0;entryY=0.5;entryDx=0;entryDy=0;" parent="1" source="CTcJU4yGuNOKdw21YTPw-15" target="CTcJU4yGuNOKdw21YTPw-22" edge="1">
          <mxGeometry width="50" height="50" relative="1" as="geometry">
            <mxPoint x="1040" y="390" as="sourcePoint" />
            <mxPoint x="1090" y="340" as="targetPoint" />
          </mxGeometry>
        </mxCell>
        <mxCell id="CTcJU4yGuNOKdw21YTPw-24" value="eth1: 172.16.120.10" style="text;html=1;align=center;verticalAlign=middle;resizable=0;points=[];autosize=1;strokeColor=none;fillColor=none;" parent="1" vertex="1">
          <mxGeometry x="936" y="310" width="130" height="30" as="geometry" />
        </mxCell>
        <mxCell id="CTcJU4yGuNOKdw21YTPw-25" value="eth0: 172.16.120.9" style="text;html=1;align=center;verticalAlign=middle;resizable=0;points=[];autosize=1;strokeColor=none;fillColor=none;" parent="1" vertex="1">
          <mxGeometry x="1080" y="338" width="120" height="30" as="geometry" />
        </mxCell>
        <mxCell id="CTcJU4yGuNOKdw21YTPw-26" value="" style="endArrow=none;html=1;rounded=0;exitX=1;exitY=0.25;exitDx=0;exitDy=0;" parent="1" source="CTcJU4yGuNOKdw21YTPw-22" target="CTcJU4yGuNOKdw21YTPw-10" edge="1">
          <mxGeometry width="50" height="50" relative="1" as="geometry">
            <mxPoint x="1490" y="320" as="sourcePoint" />
            <mxPoint x="1540" y="270" as="targetPoint" />
          </mxGeometry>
        </mxCell>
        <mxCell id="CTcJU4yGuNOKdw21YTPw-27" value="eth1: 172.16.182.126" style="text;html=1;align=center;verticalAlign=middle;resizable=0;points=[];autosize=1;strokeColor=none;fillColor=none;" parent="1" vertex="1">
          <mxGeometry x="1372" y="268" width="140" height="30" as="geometry" />
        </mxCell>
        <mxCell id="CTcJU4yGuNOKdw21YTPw-28" value="eth0: 172.16.182.106" style="text;html=1;align=center;verticalAlign=middle;resizable=0;points=[];autosize=1;strokeColor=none;fillColor=none;" parent="1" vertex="1">
          <mxGeometry x="1522" y="298" width="140" height="30" as="geometry" />
        </mxCell>
        <mxCell id="CTcJU4yGuNOKdw21YTPw-29" value="" style="endArrow=none;html=1;rounded=0;exitX=1;exitY=0.5;exitDx=0;exitDy=0;entryX=0;entryY=0.5;entryDx=0;entryDy=0;" parent="1" source="CTcJU4yGuNOKdw21YTPw-22" target="CTcJU4yGuNOKdw21YTPw-11" edge="1">
          <mxGeometry width="50" height="50" relative="1" as="geometry">
            <mxPoint x="1480" y="470" as="sourcePoint" />
            <mxPoint x="1530" y="420" as="targetPoint" />
          </mxGeometry>
        </mxCell>
        <mxCell id="CTcJU4yGuNOKdw21YTPw-30" value="eth1: 172.16.182.126" style="text;html=1;align=center;verticalAlign=middle;resizable=0;points=[];autosize=1;strokeColor=none;fillColor=none;rotation=30;" parent="1" vertex="1">
          <mxGeometry x="1370" y="340" width="140" height="30" as="geometry" />
        </mxCell>
        <mxCell id="CTcJU4yGuNOKdw21YTPw-31" value="eth0: 172.16.182.114" style="text;html=1;align=center;verticalAlign=middle;resizable=0;points=[];autosize=1;strokeColor=none;fillColor=none;rotation=30;" parent="1" vertex="1">
          <mxGeometry x="1530" y="450" width="140" height="30" as="geometry" />
        </mxCell>
        <mxCell id="CTcJU4yGuNOKdw21YTPw-32" value="" style="endArrow=none;html=1;rounded=0;exitX=1.007;exitY=0.813;exitDx=0;exitDy=0;exitPerimeter=0;entryX=0;entryY=0.5;entryDx=0;entryDy=0;" parent="1" source="CTcJU4yGuNOKdw21YTPw-22" target="CTcJU4yGuNOKdw21YTPw-12" edge="1">
          <mxGeometry width="50" height="50" relative="1" as="geometry">
            <mxPoint x="1440" y="590" as="sourcePoint" />
            <mxPoint x="1490" y="540" as="targetPoint" />
          </mxGeometry>
        </mxCell>
        <mxCell id="CTcJU4yGuNOKdw21YTPw-33" value="eth1: 172.16.182.126" style="text;html=1;align=center;verticalAlign=middle;resizable=0;points=[];autosize=1;strokeColor=none;fillColor=none;rotation=45;" parent="1" vertex="1">
          <mxGeometry x="1360" y="400" width="140" height="30" as="geometry" />
        </mxCell>
        <mxCell id="CTcJU4yGuNOKdw21YTPw-34" value="eth0: 172.16.182.118" style="text;html=1;align=center;verticalAlign=middle;resizable=0;points=[];autosize=1;strokeColor=none;fillColor=none;rotation=45;" parent="1" vertex="1">
          <mxGeometry x="1546" y="591" width="140" height="30" as="geometry" />
        </mxCell>
        <mxCell id="CTcJU4yGuNOKdw21YTPw-36" value="&lt;div&gt;RED-POP2&lt;/div&gt;&lt;div&gt;172.16.140.5&lt;/div&gt;&lt;div&gt;eth0: 172.16.140.5/30(DMZ)&lt;/div&gt;&lt;div&gt;eth1: 172.16.140.62/27(DMZ2)&lt;br&gt;&lt;/div&gt;&lt;div&gt;22&lt;/div&gt;&lt;div&gt;wget-curl-telnet-ssh-tcpdump&lt;/div&gt;&lt;div&gt;&lt;br&gt;&lt;/div&gt;&lt;div&gt;vyos:password&lt;br&gt;&lt;/div&gt;" style="rounded=0;whiteSpace=wrap;html=1;" parent="1" vertex="1">
          <mxGeometry x="1195" y="676" width="190" height="160" as="geometry" />
        </mxCell>
        <mxCell id="CTcJU4yGuNOKdw21YTPw-37" value="" style="endArrow=none;html=1;rounded=0;entryX=0.5;entryY=1;entryDx=0;entryDy=0;exitX=0.5;exitY=0;exitDx=0;exitDy=0;" parent="1" source="CTcJU4yGuNOKdw21YTPw-36" target="CTcJU4yGuNOKdw21YTPw-22" edge="1">
          <mxGeometry width="50" height="50" relative="1" as="geometry">
            <mxPoint x="1250" y="560" as="sourcePoint" />
            <mxPoint x="1300" y="510" as="targetPoint" />
          </mxGeometry>
        </mxCell>
        <mxCell id="CTcJU4yGuNOKdw21YTPw-38" value="eth2: 172.16.140.6" style="text;html=1;align=center;verticalAlign=middle;resizable=0;points=[];autosize=1;strokeColor=none;fillColor=none;rotation=90;" parent="1" vertex="1">
          <mxGeometry x="1240" y="459" width="120" height="30" as="geometry" />
        </mxCell>
        <mxCell id="CTcJU4yGuNOKdw21YTPw-39" value="eth0: 172.16.140.5" style="text;html=1;align=center;verticalAlign=middle;resizable=0;points=[];autosize=1;strokeColor=none;fillColor=none;rotation=90;" parent="1" vertex="1">
          <mxGeometry x="1215" y="610" width="120" height="30" as="geometry" />
        </mxCell>
        <mxCell id="CTcJU4yGuNOKdw21YTPw-41" value="" style="endArrow=none;html=1;rounded=0;entryX=0.25;entryY=1;entryDx=0;entryDy=0;exitX=0.5;exitY=0;exitDx=0;exitDy=0;" parent="1" source="CTcJU4yGuNOKdw21YTPw-9" target="CTcJU4yGuNOKdw21YTPw-36" edge="1">
          <mxGeometry width="50" height="50" relative="1" as="geometry">
            <mxPoint x="1190" y="930" as="sourcePoint" />
            <mxPoint x="1240" y="880" as="targetPoint" />
          </mxGeometry>
        </mxCell>
        <mxCell id="CTcJU4yGuNOKdw21YTPw-42" value="" style="endArrow=none;html=1;rounded=0;exitX=0.75;exitY=1;exitDx=0;exitDy=0;entryX=0.5;entryY=0;entryDx=0;entryDy=0;" parent="1" source="CTcJU4yGuNOKdw21YTPw-36" target="CTcJU4yGuNOKdw21YTPw-13" edge="1">
          <mxGeometry width="50" height="50" relative="1" as="geometry">
            <mxPoint x="1420" y="980" as="sourcePoint" />
            <mxPoint x="1470" y="930" as="targetPoint" />
          </mxGeometry>
        </mxCell>
        <mxCell id="CTcJU4yGuNOKdw21YTPw-43" value="eth1: 172.16.140.62" style="text;html=1;align=center;verticalAlign=middle;resizable=0;points=[];autosize=1;strokeColor=none;fillColor=none;rotation=70;" parent="1" vertex="1">
          <mxGeometry x="1300" y="880" width="130" height="30" as="geometry" />
        </mxCell>
        <mxCell id="CTcJU4yGuNOKdw21YTPw-44" value="eth1: 172.16.140.62" style="text;html=1;align=center;verticalAlign=middle;resizable=0;points=[];autosize=1;strokeColor=none;fillColor=none;rotation=-68;" parent="1" vertex="1">
          <mxGeometry x="1144.9966986279571" y="880.000322500969" width="130" height="30" as="geometry" />
        </mxCell>
        <mxCell id="CTcJU4yGuNOKdw21YTPw-45" value="eth0: 172.16.140.35" style="text;html=1;align=center;verticalAlign=middle;resizable=0;points=[];autosize=1;strokeColor=none;fillColor=none;rotation=73;" parent="1" vertex="1">
          <mxGeometry x="1310" y="1030" width="130" height="30" as="geometry" />
        </mxCell>
        <mxCell id="EwUTcguB4kKL7xBdM2Zm-2" value="" style="endArrow=none;html=1;rounded=0;exitX=1;exitY=0;exitDx=0;exitDy=0;entryX=0;entryY=0.5;entryDx=0;entryDy=0;" edge="1" parent="1" source="CTcJU4yGuNOKdw21YTPw-22" target="CTcJU4yGuNOKdw21YTPw-8">
          <mxGeometry width="50" height="50" relative="1" as="geometry">
            <mxPoint x="1390" y="304" as="sourcePoint" />
            <mxPoint x="1672" y="304" as="targetPoint" />
          </mxGeometry>
        </mxCell>
        <mxCell id="EwUTcguB4kKL7xBdM2Zm-3" value="eth1: 172.16.182.126" style="text;html=1;align=center;verticalAlign=middle;resizable=0;points=[];autosize=1;strokeColor=none;fillColor=none;rotation=-30;" vertex="1" parent="1">
          <mxGeometry x="1358" y="198" width="140" height="30" as="geometry" />
        </mxCell>
      </root>
    </mxGraphModel>
  </diagram>
</mxfile>
